<svg xmlns="http://www.w3.org/2000/svg" viewBox="-6 -14 112 184" role="img" aria-label="SEELE">
  <title>SEELE · 4 placas</title>
  <polygon points="4,26 26,4 62,4 84,26 84,136 62,158 26,158 4,136" transform="translate(15,-11)" fill="none" stroke="#4A1806" stroke-width="5"></polygon>
  <polygon points="4,26 26,4 62,4 84,26 84,136 62,158 26,158 4,136" transform="translate(10,-7)" fill="#050403" stroke="#7A2A0B" stroke-width="5"></polygon>
  <polygon points="4,26 26,4 62,4 84,26 84,136 62,158 26,158 4,136" transform="translate(5,-4)" fill="#050403" stroke="#A83A10" stroke-width="5"></polygon>
  <polygon points="4,26 26,4 62,4 84,26 84,136 62,158 26,158 4,136" fill="#050403" stroke="#F2521F" stroke-width="6"></polygon>
  <rect x="1" y="58" width="86" height="4" fill="#A83A10"></rect>
  <rect x="1" y="62" width="86" height="38" fill="#F2521F"></rect>
  <rect x="1" y="100" width="86" height="4" fill="#7A2A0B"></rect>
  <text x="41" y="85" text-anchor="middle" dominant-baseline="central" font-family="Noto Sans JP" font-weight="900" font-size="27" fill="#A83A10">ゼーレ</text>
  <text x="44" y="82" text-anchor="middle" dominant-baseline="central" font-family="Noto Sans JP" font-weight="900" font-size="27" fill="#050403">ゼーレ</text>
</svg>